

Release info:

General
Format                                   : Matroska
Format version                           : Version 2
File size                                : 689 MiB
Duration                                 : 2h 26mn
Overall bit rate mode                    : Variable
Overall bit rate                         : 659 Kbps


Video
ID                                       : 1
Format                                   : MPEG-4 Visual
Format profile                           : Advanced Simple@L5
Format settings, BVOP                    : Yes
Format settings, QPel                    : No
Format settings, GMC                     : No warppoints
Format settings, Matrix                  : Custom
Codec ID                                 : V_MS/VFW/FOURCC / XVID
Codec ID/Hint                            : XviD
Duration                                 : 2h 26mn
Bit rate                                 : 558 Kbps
Width                                    : 608 pixels
Height                                   : 256 pixels
Display aspect ratio                     : 2.40:1
Frame rate mode                          : Constant
Frame rate                               : 23.976 fps
Color space                              : YUV
Chroma subsampling                       : 4:2:0
Bit depth                                : 8 bits
Scan type                                : Progressive
Compression mode                         : Lossy
Bits/(Pixel*Frame)                       : 0.150
Stream size                              : 583 MiB (85%)
Title                                    : Student of the Year
Writing library                          : XviD 1.2.1 (UTC 2008-12-04)
Language                                 : Hindi
Default                                  : Yes
Forced                                   : No

Audio
ID                                       : 2
Format                                   : MPEG Audio
Format version                           : Version 1
Format profile                           : Layer 3
Mode                                     : Joint stereo
Muxing mode                              : Header stripping
Codec ID                                 : A_MPEG/L3
Codec ID/Hint                            : MP3
Duration                                 : 2h 22mn
Bit rate mode                            : Variable
Bit rate                                 : 88.0 Kbps
Channel(s)                               : 2 channels
Sampling rate                            : 32.0 KHz
Compression mode                         : Lossy
Delay relative to video                  : 252ms
Stream size                              : 89.6 MiB (13%)
Title                                    : Student of the Year
Writing library                          : LAME3.99r
Encoding settings                        : -m j -V 4 -q 2 -lowpass 15.1 --abr 88
Language                                 : Hindi
Default                                  : Yes
Forced                                   : No

Text
ID                                       : 3
Format                                   : UTF-8
Codec ID                                 : S_TEXT/UTF8
Codec ID/Info                            : UTF-8 Plain Text
Title                                    : Student of the Year
Language                                 : English
Default                                  : Yes
Forced                                   : No

Source:
credit to original movie ripper DDR (Thanks)

IMDB Info:

Dean Yoginder Vashisht (Rishi Kapoor), retired, has fallen gravely ill. Several students from his final year at St. Theresa's College rush to his side. In flashbacks, they all recall the events that none of them have gotten over yet, including the dean, ...
Director: Karan Johar
Writers: Karan Johar, Renzil D'Silva (screenplay)
Stars: Sidharth Malhotra, Alia Bhatt and Varun Dhawan 

Genres: Comedy | Romance
 
http://www.imdb.com/title/tt2172071/

Screen Shot:
 
http://www.shotpix.com/images/90482920374149302339.png 
http://www.shotpix.com/images/63416155164776130759.png 
http://www.shotpix.com/images/83939928233557989481.png 
http://www.shotpix.com/images/12868742043697879459.png 
http://www.shotpix.com/images/61610066300079028479.png 
http://www.shotpix.com/images/27130123617161155126.png